<svg width="104" height="26" viewBox="0 0 104 26" fill="none" xmlns="http://www.w3.org/2000/svg">
<path d="M28.7803 22.6039C28.9183 23.598 28.5421 24.5476 27.8606 25.1427C27.7341 25.2545 27.5971 25.3525 27.4509 25.4368C27.3186 25.5121 27.1805 25.577 27.0343 25.6283C26.7028 25.7458 26.3576 25.7891 26.018 25.7675C26.0088 25.7675 25.9995 25.7675 25.9904 25.7652C25.3067 25.7162 24.6483 25.406 24.1823 24.9102C23.4261 24.1064 23.448 23.1077 23.4571 22.8992C23.4571 22.7988 23.4618 22.7008 23.4732 22.6039H15.2555C15.2671 22.7008 15.2716 22.7988 15.2716 22.8992C15.2809 23.1077 15.3027 24.1064 14.5466 24.9102C14.0804 25.406 13.4221 25.7162 12.7384 25.7652C12.7292 25.7675 12.72 25.7675 12.7107 25.7675C12.3713 25.7891 12.026 25.7458 11.6945 25.6283C11.5483 25.577 11.4102 25.5121 11.2779 25.4368C11.1317 25.3525 10.9947 25.2545 10.8681 25.1438C10.867 25.1438 10.867 25.1427 10.867 25.1427C10.1868 24.5464 9.81039 23.598 9.9485 22.6039H6.98828C7.00784 22.5309 7.02856 22.4568 7.04812 22.3838C7.41643 21.0283 7.78473 19.6717 8.15303 18.3161L8.39473 18.3048L11.2226 18.1794C11.3504 18.1737 11.4482 18.0676 11.4424 17.9423C11.4367 17.8156 11.3319 17.7177 11.2019 17.7245L8.52018 17.843L8.27964 17.8544C8.41315 17.3597 8.54781 16.8661 8.68131 16.3724L8.91495 16.3918L11.1858 16.5798H11.2053C11.3239 16.5798 11.4252 16.4899 11.4344 16.3713C11.4447 16.2459 11.3515 16.1353 11.2249 16.125L9.03695 15.9438L8.80331 15.9244C8.93912 15.4239 9.07494 14.9234 9.21075 14.4241L9.42712 14.5073L11.5817 15.3315C11.6082 15.3418 11.6369 15.3475 11.6646 15.3475C11.7566 15.3475 11.8441 15.2917 11.8787 15.2016C11.9246 15.0842 11.8659 14.952 11.7474 14.9063L9.54798 14.0638L9.33159 13.9817C10.5251 9.58803 11.7198 5.19433 12.9134 0.801758C13.7755 3.42841 14.6363 6.05505 15.4972 8.68057C16.105 8.37504 17.5217 7.74915 19.3563 7.77766H19.3724C21.207 7.74915 22.6239 8.37504 23.2316 8.68057C24.0925 6.05505 24.9534 3.42841 25.8155 0.801758C27.0089 5.19433 28.2037 9.58803 29.3972 13.9817L29.1808 14.0638L26.9814 14.9063C26.8628 14.952 26.8029 15.0842 26.849 15.2016C26.8847 15.2917 26.9721 15.3475 27.0643 15.3475C27.0919 15.3475 27.1194 15.3418 27.147 15.3315L29.3016 14.5073L29.5181 14.4241C29.6538 14.9234 29.7897 15.4239 29.9254 15.9244L29.6918 15.9438L27.5039 16.125C27.3773 16.1353 27.2829 16.2459 27.2932 16.3713C27.3036 16.4899 27.4049 16.5798 27.5223 16.5798H27.5419L29.8139 16.3918L30.0475 16.3724C30.181 16.8661 30.3156 17.3597 30.4491 17.8544L30.2086 17.843L27.5258 17.7245C27.3957 17.7199 27.291 17.8156 27.2852 17.9423C27.2794 18.0676 27.3784 18.1737 27.5051 18.1794L30.3341 18.3048L30.5758 18.3161C30.9441 19.6717 31.3124 21.0283 31.6807 22.3838C31.7002 22.4568 31.7209 22.5309 31.7405 22.6039H28.7803Z" fill="#F4E041"/>
<path d="M32.0394 22.8316L31.9796 22.6127L31.9174 22.3835L30.8148 18.3261L30.5754 18.3159L30.3337 18.3045L31.4397 22.3755H28.5152L28.5508 22.6344C28.6602 23.4175 28.4254 24.1768 27.9546 24.724C27.8648 24.8289 27.7659 24.9258 27.66 25.0124C27.6278 25.0398 27.5944 25.066 27.5611 25.09C27.492 25.1424 27.4206 25.1892 27.3458 25.2313C27.2227 25.3032 27.0927 25.3647 26.9556 25.4126C26.7277 25.4935 26.4906 25.5368 26.2524 25.5437C26.1741 25.546 26.0959 25.5437 26.0177 25.5391C25.9417 25.5346 25.8657 25.5254 25.7898 25.5129C25.2511 25.4274 24.7366 25.1652 24.3499 24.7537C23.7077 24.0707 23.672 23.2363 23.687 22.8988C23.687 22.7997 23.6915 22.7118 23.7008 22.6297L23.7307 22.3755H14.9961L15.0261 22.6297C15.0353 22.7118 15.041 22.7997 15.041 22.9079C15.0548 23.2363 15.0192 24.0707 14.3769 24.7537C13.9902 25.1652 13.4758 25.4274 12.9383 25.5129C12.8624 25.5254 12.7864 25.5346 12.7104 25.5391C12.6322 25.5437 12.5539 25.546 12.4756 25.5437C12.2362 25.5368 11.9991 25.4935 11.7712 25.4126C11.6354 25.3647 11.5054 25.3043 11.3834 25.2325H11.3822C11.3074 25.1902 11.2349 25.1424 11.1658 25.09C11.1325 25.066 11.0991 25.0398 11.0668 25.0124C10.961 24.9258 10.862 24.8289 10.7722 24.724C10.3015 24.1768 10.0667 23.4175 10.176 22.6344L10.2117 22.3755H7.2883L8.39435 18.3045L8.15266 18.3159L7.91211 18.3261L6.8095 22.3835L6.74735 22.6127L6.6875 22.8316H9.69377C9.61781 24.1711 10.3958 25.4115 11.6158 25.8424C12.6782 26.2186 13.9235 25.9063 14.7142 25.0649C15.475 24.2554 15.5175 23.2728 15.5015 22.8988C15.5015 22.876 15.5003 22.8532 15.5003 22.8316H23.2266V22.8886C23.2093 23.2728 23.2519 24.2554 24.0127 25.0649C24.5812 25.6691 25.3823 25.9997 26.1822 25.9997C26.4965 25.9997 26.8106 25.9484 27.111 25.8424C28.331 25.4115 29.109 24.1711 29.0332 22.8316H32.0394ZM8.68094 16.372L8.4473 16.3527L8.03757 17.8644L8.27926 17.8541L8.51981 17.8428L8.91458 16.3914L8.68094 16.372ZM25.8358 0L25.5952 0.730765C24.877 2.92191 24.1577 5.11308 23.4396 7.30309L23.0931 8.3599C22.2172 7.95177 20.9189 7.52197 19.3721 7.54933H19.3595C17.808 7.52426 16.5096 7.95177 15.6339 8.3599L15.2874 7.30309C14.5691 5.11308 13.851 2.92191 13.1317 0.730765L12.8911 0L9.11485 13.8982L9.33123 13.9815L9.5476 14.0635L12.9337 1.60176C13.5725 3.55007 14.2112 5.49727 14.8488 7.44445L15.3611 9.00402L15.6004 8.88317C16.4245 8.4682 17.7493 7.97571 19.3559 8.00535H19.3755C20.9868 7.97799 22.3024 8.4682 23.1264 8.88317L23.367 9.00402L23.878 7.44445C24.5156 5.49727 25.1544 3.55007 25.7943 1.60176L29.1804 14.0635L29.3968 13.9815L29.6121 13.8982L25.8358 0ZM8.99399 14.3406L8.5693 15.9046L8.80294 15.924L9.03658 15.9434L9.42676 14.507L9.21038 14.4238L8.99399 14.3406ZM29.7328 14.3416L29.5177 14.4238L29.3013 14.507L29.6915 15.9434L29.9251 15.924L30.1576 15.9058L29.7328 14.3416ZM30.2796 16.3527L30.0471 16.372L29.8134 16.3914L30.2083 17.8428L30.4488 17.8541L30.6893 17.8644L30.2796 16.3527Z" fill="black" fill-opacity="0.87"/>
<path d="M21.1883 14.9493C20.9179 14.9493 20.6992 14.7326 20.6992 14.4647V11.528C20.6992 11.2601 20.9179 11.0435 21.1883 11.0435C21.4588 11.0435 21.6774 11.2601 21.6774 11.528V14.4647C21.6774 14.7315 21.4588 14.9493 21.1883 14.9493Z" fill="black" fill-opacity="0.87"/>
<path d="M17.8267 14.4365C17.5584 14.4649 17.3168 14.2722 17.288 14.0055L17.0497 11.7893C17.0209 11.5236 17.2155 11.2842 17.4848 11.2557C17.753 11.2272 17.9947 11.4199 18.0235 11.6867L18.2616 13.9029C18.2905 14.1696 18.0959 14.4079 17.8267 14.4365Z" fill="black" fill-opacity="0.87"/>
<path d="M11.8738 15.2013C11.8393 15.2914 11.7518 15.3472 11.6597 15.3472C11.6321 15.3472 11.6033 15.3416 11.5769 15.3313L9.42231 14.507L9.20593 14.4238L8.98954 14.3406L5.85897 13.1424C5.73928 13.0968 5.68058 12.9646 5.72661 12.8471C5.77266 12.7297 5.90616 12.6716 6.02471 12.7172L9.1104 13.8982L9.32678 13.9814L9.54315 14.0635L11.7426 14.9061C11.8612 14.9517 11.9199 15.0839 11.8738 15.2013Z" fill="black" fill-opacity="0.87"/>
<path d="M11.4315 16.3708C11.4223 16.4894 11.321 16.5795 11.2025 16.5795H11.1829L8.9121 16.3914L8.67846 16.372L8.44482 16.3526L5.0737 16.0733C4.9471 16.063 4.85272 15.9525 4.86423 15.827C4.87458 15.7017 4.98393 15.6081 5.11283 15.6196L8.56682 15.9046L8.80046 15.9239L9.0341 15.9433L11.2221 16.1246C11.3486 16.1348 11.4419 16.2455 11.4315 16.3708Z" fill="black" fill-opacity="0.87"/>
<path d="M11.4391 17.9422C11.4449 18.0677 11.347 18.1736 11.2193 18.1793L8.39142 18.3047L8.14972 18.3162L7.90917 18.3264L5.0951 18.4519H5.08474C4.96274 18.4519 4.86032 18.356 4.85571 18.2341C4.84996 18.1075 4.94779 18.0015 5.07438 17.9958L8.03462 17.8647L8.27631 17.8545L8.51687 17.8431L11.1986 17.7245C11.3286 17.7176 11.4334 17.8157 11.4391 17.9422Z" fill="black" fill-opacity="0.87"/>
<path d="M32.8597 13.1424L29.7279 14.3417L29.5127 14.4238L29.2964 14.507L27.1418 15.3313C27.1142 15.3416 27.0865 15.3472 27.0589 15.3472C26.9669 15.3472 26.8793 15.2914 26.8436 15.2013C26.7977 15.0839 26.8574 14.9517 26.976 14.9061L29.1755 14.0635L29.3919 13.9814L29.607 13.8982L32.6939 12.7172C32.8113 12.6716 32.946 12.7297 32.992 12.8471C33.0369 12.9646 32.9782 13.0968 32.8597 13.1424Z" fill="black" fill-opacity="0.87"/>
<path d="M33.8584 15.8273C33.8687 15.9527 33.7743 16.0633 33.6477 16.0735L30.2766 16.3529L30.044 16.3723L29.8104 16.3916L27.5384 16.5797H27.5189C27.4015 16.5797 27.3003 16.4897 27.2898 16.3711C27.2794 16.2457 27.3739 16.1351 27.5004 16.1248L29.6885 15.9436L29.9221 15.9242L30.1545 15.906L33.6097 15.6198C33.7363 15.6072 33.848 15.7018 33.8584 15.8273Z" fill="black" fill-opacity="0.87"/>
<path d="M33.8661 18.2338C33.8603 18.3558 33.759 18.4516 33.6359 18.4516H33.6255L30.8115 18.3262L30.5721 18.3159L30.3304 18.3045L27.5014 18.1792C27.3748 18.1734 27.2758 18.0674 27.2815 17.942C27.2873 17.8154 27.392 17.7196 27.5221 17.7243L30.205 17.8428L30.4455 17.8542L30.686 17.8645L33.6463 17.9955C33.774 18.0012 33.8719 18.1073 33.8661 18.2338Z" fill="black" fill-opacity="0.87"/>
<path d="M25.9219 23.5796C26.0097 23.8304 26.0859 24.136 26.1102 24.486C26.1391 24.8976 26.0871 25.2555 26.0155 25.5393L25.9219 23.5796Z" fill="white"/>
<path d="M26.016 25.7672C25.9976 25.7672 25.9791 25.7649 25.9608 25.7604C25.8376 25.7306 25.7616 25.6064 25.7928 25.4845C25.8733 25.1595 25.9032 24.8289 25.8802 24.5017C25.8606 24.2178 25.8008 23.9328 25.7041 23.6546C25.6626 23.5361 25.726 23.4061 25.8468 23.3651C25.9677 23.324 26.0977 23.3867 26.1391 23.5065C26.2496 23.8222 26.3163 24.1471 26.3394 24.4709C26.3659 24.846 26.3313 25.2233 26.2393 25.595C26.2127 25.6976 26.1184 25.7672 26.016 25.7672Z" fill="black" fill-opacity="0.87"/>
<path d="M27.4219 23.4893C27.5629 23.7139 27.6855 23.9874 27.7237 24.3009C27.7699 24.6692 27.6867 24.9896 27.5722 25.2449L27.4219 23.4893Z" fill="white"/>
<path d="M27.5723 25.4718C27.5412 25.4718 27.51 25.465 27.4789 25.4524C27.3627 25.4011 27.3098 25.2666 27.3616 25.1515C27.4836 24.8779 27.5274 24.6008 27.4939 24.3272C27.464 24.0878 27.3743 23.8461 27.2258 23.6078C27.159 23.5007 27.1924 23.3604 27.3006 23.2943C27.4088 23.2282 27.5504 23.2613 27.6172 23.3684C27.8013 23.6625 27.9129 23.967 27.9509 24.2725C27.9946 24.6282 27.9382 24.9862 27.7828 25.3361C27.7448 25.4217 27.6609 25.4718 27.5723 25.4718Z" fill="black" fill-opacity="0.87"/>
<path d="M12.8021 23.5796C12.7142 23.8304 12.6379 24.136 12.6136 24.486C12.5847 24.8976 12.6367 25.2555 12.7084 25.5393L12.8021 23.5796Z" fill="white"/>
<path d="M12.707 25.7673C12.6036 25.7673 12.5103 25.6976 12.4838 25.594C12.3917 25.2235 12.3572 24.845 12.3836 24.4698C12.4055 24.145 12.4734 23.8211 12.5839 23.5054C12.6254 23.3868 12.7566 23.3229 12.8762 23.364C12.996 23.405 13.0604 23.535 13.019 23.6536C12.9223 23.9317 12.8624 24.2156 12.8429 24.5006C12.8199 24.8278 12.8498 25.1585 12.9304 25.4834C12.9603 25.6054 12.8855 25.7296 12.7624 25.7593C12.7439 25.765 12.7255 25.7673 12.707 25.7673Z" fill="black" fill-opacity="0.87"/>
<path d="M11.303 23.4893C11.1619 23.7139 11.0394 23.9874 11.0013 24.3009C10.9551 24.6692 11.0383 24.9896 11.1527 25.2449L11.303 23.4893Z" fill="white"/>
<path d="M11.1513 25.4718C11.0626 25.4718 10.9786 25.4205 10.9406 25.3361C10.7853 24.9872 10.7277 24.6293 10.7726 24.2725C10.8106 23.967 10.9222 23.6637 11.1064 23.3684C11.1731 23.2613 11.3147 23.2282 11.4229 23.2943C11.5311 23.3604 11.5645 23.5007 11.4977 23.6078C11.3492 23.845 11.2595 24.0878 11.2295 24.3272C11.1962 24.6008 11.2399 24.8779 11.3619 25.1515C11.4137 25.2666 11.3607 25.4011 11.2445 25.4524C11.2134 25.4661 11.1823 25.4718 11.1513 25.4718Z" fill="black" fill-opacity="0.87"/>
<path d="M8.35528 22.7983H0.244843C0.11018 22.7983 0 22.7109 0 22.6042C0 22.4974 0.11018 22.4102 0.244843 22.4102H8.35528C8.48994 22.4102 8.60012 22.4974 8.60012 22.6042C8.60012 22.7109 8.48994 22.7983 8.35528 22.7983Z" fill="black" fill-opacity="0.87"/>
<path d="M37.8826 22.8397H30.2576C30.1309 22.8397 30.0273 22.7372 30.0273 22.6117C30.0273 22.4864 30.1309 22.3838 30.2576 22.3838H37.8826C38.0093 22.3838 38.1127 22.4864 38.1127 22.6117C38.1127 22.7372 38.0103 22.8397 37.8826 22.8397Z" fill="black" fill-opacity="0.87"/>
<path d="M21.7045 18.6444C21.5387 19.0707 21.1554 19.5324 20.6686 19.6021C20.2186 19.6647 19.8042 19.4264 19.5062 19.0559C19.4774 19.1345 19.4417 19.2155 19.3957 19.2964C19.3208 19.4288 18.9192 20.083 18.2493 20.083H18.2309C17.5933 20.0717 17.0398 19.496 16.9431 18.7424C16.9281 18.617 17.0167 18.503 17.1432 18.4881C17.2676 18.4722 17.385 18.5611 17.4 18.6854C17.4737 19.2668 17.8845 19.6213 18.2389 19.6271H18.2482C18.6706 19.6271 18.9618 19.1312 18.994 19.0742C19.1528 18.7914 19.1493 18.5018 19.1206 18.3115C19.1103 18.2762 19.101 18.2408 19.0918 18.2055C18.6488 18.2568 18.2666 18.1029 18.1964 17.8223C18.117 17.5032 18.4727 17.1407 18.9917 17.013C19.5119 16.8853 19.9976 17.0403 20.077 17.3596C20.1438 17.6229 19.9147 17.9147 19.5418 18.0812C19.5533 18.1233 19.5637 18.1736 19.5729 18.2282C19.7593 18.8416 20.2359 19.2007 20.6041 19.1505C20.8896 19.1094 21.1577 18.7822 21.274 18.4813C21.373 18.2259 21.3592 17.9854 21.3304 17.8292C21.3086 17.705 21.3914 17.5864 21.5157 17.5636C21.6423 17.5419 21.7608 17.624 21.7839 17.7471C21.8231 17.9615 21.8414 18.2898 21.7045 18.6444Z" fill="black" fill-opacity="0.87"/>
<path d="M43.808 18.588C43.4145 18.588 43.2178 18.4796 43.2178 18.2628V9.33509H40.3849C40.2866 9.33509 40.2128 9.3006 40.1636 9.23162C40.1144 9.16264 40.0898 9.04932 40.0898 8.89166V8.65516C40.0898 8.4975 40.1144 8.38418 40.1636 8.3152C40.2128 8.24622 40.2866 8.21173 40.3849 8.21173H47.3048C47.413 8.21173 47.4868 8.24622 47.5262 8.3152C47.5753 8.38418 47.5999 8.4975 47.5999 8.65516V8.89166C47.5999 9.04932 47.5753 9.16264 47.5262 9.23162C47.4868 9.3006 47.413 9.33509 47.3048 9.33509H44.5162V18.2628C44.5162 18.4796 44.3195 18.588 43.926 18.588H43.808ZM49.7811 18.5584C49.6237 18.5584 49.5106 18.5239 49.4417 18.455C49.3729 18.386 49.3384 18.2727 49.3384 18.115V8.65516C49.3384 8.4975 49.3729 8.38418 49.4417 8.3152C49.5106 8.24622 49.6237 8.21173 49.7811 8.21173H54.9304C55.0386 8.21173 55.1124 8.24622 55.1518 8.3152C55.2009 8.38418 55.2255 8.4975 55.2255 8.65516V8.89166C55.2255 9.04932 55.2009 9.16264 55.1518 9.23162C55.1124 9.3006 55.0386 9.33509 54.9304 9.33509H50.6368V12.7052H54.4878C54.596 12.7052 54.6697 12.7396 54.7091 12.8086C54.7583 12.8776 54.7829 12.9909 54.7829 13.1486V13.3851C54.7829 13.5427 54.7583 13.6561 54.7091 13.725C54.6697 13.794 54.596 13.8285 54.4878 13.8285H50.6368V17.4351H54.9452C55.0533 17.4351 55.1271 17.4696 55.1665 17.5385C55.2157 17.6075 55.2403 17.7208 55.2403 17.8785V18.115C55.2403 18.2727 55.2157 18.386 55.1665 18.455C55.1271 18.5239 55.0533 18.5584 54.9452 18.5584H49.7811ZM59.5472 18.6471C58.957 18.6471 58.4111 18.5781 57.9094 18.4402C57.4077 18.3022 57.029 18.1347 56.7733 17.9376C56.5864 17.7997 56.493 17.6765 56.493 17.5681C56.493 17.4499 56.5568 17.2873 56.6848 17.0803C56.8224 16.8734 56.9306 16.7699 57.0094 16.7699C57.0486 16.7699 57.1519 16.8192 57.3192 16.9177C57.624 17.0852 57.9486 17.2281 58.293 17.3464C58.6471 17.4646 59.0651 17.5238 59.5472 17.5238C60.1176 17.5238 60.58 17.3661 60.9341 17.0508C61.2979 16.7256 61.48 16.3019 61.48 15.7796C61.48 15.415 61.3816 15.1145 61.1849 14.878C60.9881 14.6316 60.7471 14.4395 60.4619 14.3015C60.1865 14.1537 59.7832 13.9763 59.2521 13.7694C58.6815 13.5427 58.229 13.3358 57.8946 13.1486C57.5602 12.9614 57.2749 12.6855 57.0389 12.3208C56.8028 11.9464 56.6848 11.4586 56.6848 10.8575C56.6848 10.3254 56.8176 9.85242 57.0831 9.43856C57.3585 9.02469 57.7421 8.70443 58.234 8.47779C58.7357 8.2413 59.3111 8.12305 59.9603 8.12305C60.2946 8.12305 60.6685 8.17232 61.0816 8.27086C61.4948 8.35954 61.8143 8.48272 62.0407 8.64038C62.2374 8.75863 62.3358 8.88673 62.3358 9.02469C62.3358 9.13308 62.2717 9.29075 62.144 9.49768C62.0259 9.70461 61.9324 9.80808 61.8636 9.80808C61.8143 9.80808 61.7406 9.78344 61.6423 9.73418C61.5538 9.68491 61.4948 9.65041 61.4652 9.63071C60.9733 9.3745 60.4619 9.2464 59.9308 9.2464C59.3602 9.2464 58.898 9.39421 58.5438 9.68983C58.1995 9.98545 58.0274 10.3944 58.0274 10.9167C58.0274 11.2517 58.1109 11.5227 58.2783 11.7296C58.4553 11.9365 58.652 12.0942 58.8684 12.2026C59.0946 12.3011 59.4831 12.4588 60.0341 12.6756C60.6242 12.9022 61.1061 13.1239 61.48 13.3407C61.8537 13.5477 62.1685 13.8531 62.4243 14.2572C62.6899 14.6513 62.8227 15.1588 62.8227 15.7796C62.8227 16.6665 62.5276 17.3661 61.9374 17.8785C61.3472 18.3909 60.5505 18.6471 59.5472 18.6471ZM67.3376 18.588C66.9441 18.588 66.7474 18.4796 66.7474 18.2628V9.33509H63.9145C63.8161 9.33509 63.7423 9.3006 63.6932 9.23162C63.6439 9.16264 63.6194 9.04932 63.6194 8.89166V8.65516C63.6194 8.4975 63.6439 8.38418 63.6932 8.3152C63.7423 8.24622 63.8161 8.21173 63.9145 8.21173H70.8344C70.9426 8.21173 71.0163 8.24622 71.0557 8.3152C71.1049 8.38418 71.1295 8.4975 71.1295 8.65516V8.89166C71.1295 9.04932 71.1049 9.16264 71.0557 9.23162C71.0163 9.3006 70.9426 9.33509 70.8344 9.33509H68.0458V18.2628C68.0458 18.4796 67.849 18.588 67.4556 18.588H67.3376ZM75.4352 18.588C75.0418 18.588 74.845 18.4796 74.845 18.2628V9.33509H72.0121C71.9139 9.33509 71.8401 9.3006 71.7908 9.23162C71.7417 9.16264 71.717 9.04932 71.717 8.89166V8.65516C71.717 8.4975 71.7417 8.38418 71.7908 8.3152C71.8401 8.24622 71.9139 8.21173 72.0121 8.21173H78.932C79.0403 8.21173 79.1141 8.24622 79.1533 8.3152C79.2026 8.38418 79.2271 8.4975 79.2271 8.65516V8.89166C79.2271 9.04932 79.2026 9.16264 79.1533 9.23162C79.1141 9.3006 79.0403 9.33509 78.932 9.33509H76.1434V18.2628C76.1434 18.4796 75.9467 18.588 75.5532 18.588H75.4352ZM79.7404 18.588C79.3176 18.588 79.106 18.5042 79.106 18.3367C79.106 18.2874 79.1207 18.2185 79.1502 18.1298L82.6471 8.41867C82.7061 8.261 82.9029 8.18217 83.2373 8.18217H83.6651C84.0193 8.18217 84.2161 8.261 84.2553 8.41867L87.7522 18.1446C87.7817 18.2135 87.7964 18.2776 87.7964 18.3367C87.7964 18.5042 87.585 18.588 87.162 18.588H87.0439C86.6997 18.588 86.503 18.5092 86.4538 18.3515L85.5832 15.9274H81.2454L80.4044 18.3515C80.3552 18.5092 80.1586 18.588 79.8142 18.588H79.7404ZM85.1849 14.8041L83.6356 10.3993C83.5865 10.2417 83.5275 9.95589 83.4586 9.54202H83.4291C83.3504 9.93619 83.2767 10.2219 83.2077 10.3993L81.6585 14.8041H85.1849ZM91.5779 18.6471C90.9877 18.6471 90.4418 18.5781 89.9401 18.4402C89.4385 18.3022 89.0597 18.1347 88.804 17.9376C88.6171 17.7997 88.5237 17.6765 88.5237 17.5681C88.5237 17.4499 88.5876 17.2873 88.7155 17.0803C88.8531 16.8734 88.9613 16.7699 89.0401 16.7699C89.0793 16.7699 89.1826 16.8192 89.3499 16.9177C89.6548 17.0852 89.9794 17.2281 90.3237 17.3464C90.6778 17.4646 91.0958 17.5238 91.5779 17.5238C92.1483 17.5238 92.6107 17.3661 92.9648 17.0508C93.3287 16.7256 93.5107 16.3019 93.5107 15.7796C93.5107 15.415 93.4123 15.1145 93.2156 14.878C93.0188 14.6316 92.7779 14.4395 92.4927 14.3015C92.2172 14.1537 91.8139 13.9763 91.2828 13.7694C90.7122 13.5427 90.2597 13.3358 89.9252 13.1486C89.5909 12.9614 89.3057 12.6855 89.0696 12.3208C88.8335 11.9464 88.7155 11.4586 88.7155 10.8575C88.7155 10.3254 88.8483 9.85242 89.1139 9.43856C89.3892 9.02469 89.7728 8.70443 90.2647 8.47779C90.7664 8.2413 91.3418 8.12305 91.991 8.12305C92.3253 8.12305 92.6992 8.17232 93.1124 8.27086C93.5255 8.35954 93.8451 8.48272 94.0714 8.64038C94.2681 8.75863 94.3665 8.88673 94.3665 9.02469C94.3665 9.13308 94.3025 9.29075 94.1747 9.49768C94.0566 9.70461 93.9631 9.80808 93.8943 9.80808C93.8451 9.80808 93.7713 9.78344 93.673 9.73418C93.5845 9.68491 93.5255 9.65041 93.496 9.63071C93.0041 9.3745 92.4927 9.2464 91.9615 9.2464C91.3909 9.2464 90.9287 9.39421 90.5746 9.68983C90.2302 9.98545 90.0582 10.3944 90.0582 10.9167C90.0582 11.2517 90.1417 11.5227 90.309 11.7296C90.486 11.9365 90.6827 12.0942 90.8992 12.2026C91.1254 12.3011 91.5138 12.4588 92.0648 12.6756C92.655 12.9022 93.1368 13.1239 93.5107 13.3407C93.8845 13.5477 94.1992 13.8531 94.455 14.2572C94.7206 14.6513 94.8534 15.1588 94.8534 15.7796C94.8534 16.6665 94.5583 17.3661 93.9681 17.8785C93.3779 18.3909 92.5812 18.6471 91.5779 18.6471ZM97.3764 18.588C96.9829 18.588 96.7862 18.4796 96.7862 18.2628V8.50735C96.7862 8.29056 96.9829 8.18217 97.3764 8.18217H97.4945C97.8878 8.18217 98.0846 8.29056 98.0846 8.50735V13.0303H98.1437L101.773 8.38911C101.881 8.25115 102.147 8.18217 102.57 8.18217H102.718C102.885 8.18217 103.013 8.20188 103.101 8.2413C103.19 8.27086 103.234 8.3152 103.234 8.37432C103.234 8.46301 103.185 8.56155 103.086 8.66994L99.3978 13.2816L103.868 18.1446C103.957 18.2431 104.001 18.3219 104.001 18.3811C104.001 18.4599 103.952 18.5141 103.854 18.5436C103.755 18.5732 103.588 18.588 103.352 18.588H103.175C102.959 18.588 102.786 18.5781 102.659 18.5584C102.541 18.5387 102.442 18.4845 102.363 18.3958L98.1437 13.6364H98.0846V18.2628C98.0846 18.4796 97.8878 18.588 97.4945 18.588H97.3764Z" fill="black" fill-opacity="0.87"/>
</svg>
