<svg width="328" height="290" viewBox="0 0 328 290" fill="none" xmlns="http://www.w3.org/2000/svg">
<path d="M321.927 267.839H296.084V268.033H321.927V267.839Z" fill="#EBEBEB"/>
<path d="M229.324 269.945H222.543V270.14H229.324V269.945Z" fill="#EBEBEB"/>
<path d="M295.304 260.62H280.33V260.814H295.304V260.62Z" fill="#EBEBEB"/>
<path d="M45.5127 261.926H11.8125V262.12H45.5127V261.926Z" fill="#EBEBEB"/>
<path d="M57.406 261.926H52.4668V262.12H57.406V261.926Z" fill="#EBEBEB"/>
<path d="M146.559 265.205H73.4629V265.399H146.559V265.205Z" fill="#EBEBEB"/>
<path d="M156.107 25.2336C144.761 37.7827 139.143 54.8775 140.103 71.7391C141.063 88.6008 147.305 104.748 154.905 119.845C161.561 133.07 169.512 148.067 164.065 161.828C161.022 169.521 154.086 175.217 146.416 178.387C138.745 181.557 130.334 182.474 122.04 182.886C107.901 183.593 93.5518 182.948 79.7955 186.251C66.0392 189.553 52.4936 197.712 47.1721 210.774C40.9065 226.167 48.0226 244.583 60.5695 255.515C73.1241 266.448 89.9625 271.142 106.481 273.465C129.624 276.713 153.337 275.897 176.199 271.072C194.559 267.194 212.622 260.597 227.603 249.338C242.577 238.079 254.265 221.792 257.472 203.376C260.671 184.961 254.46 164.595 239.807 152.924C233.713 148.067 226.363 144.749 221.018 139.085C215.673 133.42 212.958 123.987 217.92 117.988C221.197 114.025 226.722 112.813 231.84 112.199C257.02 109.208 284.915 114.375 305.974 100.303C318.03 92.245 325.832 78.5071 327.549 64.1475C329.266 49.7879 326.152 34.2472 317.07 22.9647C292.312 -7.75147 186.428 -8.30316 156.107 25.2336Z" fill="#E5F7FF"/>
<path d="M165.948 290C249.502 290 317.236 286.062 317.236 281.204C317.236 276.346 249.502 272.408 165.948 272.408C82.3941 272.408 14.6602 276.346 14.6602 281.204C14.6602 286.062 82.3941 290 165.948 290Z" fill="#E5F7FF"/>
<path d="M153.521 157.895L155.472 146.683L159.303 147.794L153.521 157.895Z" fill="#00BDD3"/>
<path d="M154.809 161.478L165.779 158.323L164.258 154.647L154.809 161.478Z" fill="#00BDD3"/>
<path d="M156.76 157.266L163.01 145.494L167.215 148.408L156.76 157.266Z" fill="#00BDD3"/>
<path d="M53.5051 174.92H48.5659C48.3474 174.92 48.1758 174.749 48.1758 174.531C48.1758 174.314 48.3474 174.143 48.5659 174.143H53.5051C53.7236 174.143 53.8952 174.314 53.8952 174.531C53.8952 174.749 53.7236 174.92 53.5051 174.92Z" fill="#00BDD3"/>
<path d="M45.2811 174.92H20.523C20.3045 174.92 20.1328 174.749 20.1328 174.531C20.1328 174.314 20.3045 174.143 20.523 174.143H45.2733C45.4918 174.143 45.6635 174.314 45.6635 174.531C45.6635 174.749 45.4918 174.92 45.2811 174.92Z" fill="#00BDD3"/>
<path d="M133.062 219.88C132.968 219.88 132.874 219.849 132.796 219.779C132.64 219.631 132.625 219.39 132.773 219.227L135.082 216.725C135.231 216.57 135.473 216.562 135.636 216.702C135.792 216.85 135.808 217.09 135.66 217.254L133.35 219.756C133.272 219.841 133.171 219.88 133.062 219.88Z" fill="#00BDD3"/>
<path d="M111.908 239.795C111.767 239.795 111.627 239.717 111.557 239.585C111.463 239.391 111.533 239.158 111.728 239.064C118.962 235.42 130.416 221.791 130.533 221.651C130.674 221.488 130.915 221.465 131.079 221.605C131.243 221.744 131.267 221.985 131.126 222.148C130.65 222.716 119.445 236.034 112.072 239.756C112.033 239.779 111.97 239.795 111.908 239.795Z" fill="#00BDD3"/>
<path d="M168.056 235.539L173.627 230.947L159.598 217.69L153.613 222.78L168.056 235.539Z" fill="#F6B69E"/>
<path d="M178.137 229.183C177.763 228.95 176.998 229.059 176.21 229.277C175.835 229.385 175.445 229.51 175.102 229.634C174.829 229.735 174.579 229.836 174.368 229.921C174.056 230.054 173.83 230.155 173.752 230.193C173.682 230.209 173.635 230.279 173.627 230.357C173.619 230.38 173.635 230.411 173.65 230.434C173.674 230.473 173.713 230.504 173.76 230.512C174.548 230.722 175.359 230.854 176.179 230.916C176.577 230.97 176.99 230.939 177.372 230.831C177.396 230.823 177.411 230.823 177.427 230.815C177.645 230.745 177.864 230.652 178.059 230.535C178.317 230.326 178.457 230.007 178.426 229.673C178.418 229.479 178.317 229.284 178.137 229.183ZM178.059 229.688C178.098 229.914 177.997 230.139 177.809 230.271C177.661 230.395 177.45 230.473 177.177 230.528C176.912 230.582 176.592 230.598 176.225 230.574C175.796 230.559 175.297 230.489 174.743 230.388C174.626 230.364 174.501 230.341 174.376 230.318C175.039 229.999 175.734 229.758 176.452 229.595C176.834 229.51 177.216 229.448 177.606 229.409C177.724 229.409 177.833 229.432 177.934 229.486C178.02 229.533 178.067 229.611 178.059 229.688Z" fill="#00BDD3"/>
<path d="M175.586 226.261C175.227 226.315 174.899 226.533 174.697 226.828C174.634 226.921 174.58 227.015 174.541 227.123C174.072 228.126 174.314 229.641 174.369 229.921C174.377 229.944 174.377 229.952 174.377 229.96C174.384 230.022 174.431 230.076 174.494 230.092C174.525 230.107 174.564 230.115 174.603 230.099C174.626 230.099 174.65 230.084 174.673 230.061C174.806 229.952 174.946 229.804 175.102 229.625C175.329 229.361 175.563 229.043 175.766 228.693C176.249 227.908 176.593 227.022 176.382 226.564C176.296 226.385 176.093 226.175 175.586 226.261ZM176.054 226.719C176.187 227.022 175.929 227.714 175.531 228.398C175.274 228.833 174.977 229.252 174.681 229.563C174.619 229.074 174.556 228.141 174.798 227.45C174.845 227.294 174.915 227.147 175.001 227.03C175.134 226.844 175.321 226.696 175.539 226.634L175.649 226.618C175.976 226.564 176.039 226.68 176.054 226.719Z" fill="#00BDD3"/>
<path d="M172.901 230.621L165.91 234.133C165.629 234.265 165.497 234.576 165.582 234.864L167.642 241.375C167.869 242.012 168.571 242.346 169.219 242.121C169.258 242.106 169.304 242.09 169.343 242.075C181.321 237.886 184.988 234.918 186.244 234.242C189.81 232.307 187.805 229.79 186.478 230.1C180.509 231.522 178.504 231.157 175.921 230.489C174.54 230.279 173.323 230.411 172.901 230.621Z" fill="#0E1F3D"/>
<path opacity="0.2" d="M159.598 217.697L166.706 223.968L160.714 229.057L153.613 222.787L159.598 217.697Z" fill="black"/>
<path d="M157.39 229.012L166.325 220.807L164.358 217.364L154.027 226.199L157.39 229.012Z" fill="#00BDD3"/>
<path opacity="0.5" d="M157.39 229.012L166.325 220.807L164.358 217.364L154.027 226.199L157.39 229.012Z" fill="white"/>
<path d="M162.953 218.568L161.76 219.593L159.973 221.124L158.904 222.025L155.79 224.691L155.19 225.196C155.19 225.196 142.463 218.055 135.378 211.955C130.525 207.775 130.088 206.22 129.581 206.609C122.738 211.792 102.482 229.71 91.004 239.035C90.6294 239.073 90.2627 239.112 89.8804 239.136C83.7474 239.586 78.9253 238.91 75.18 237.488C75.1409 232.531 79.4013 220.953 79.7524 219.834C79.7524 219.834 96.6922 203.066 124.135 188.893C124.408 188.753 124.689 188.644 124.962 188.527C125.321 188.372 125.672 188.224 126.038 188.092C127.474 187.548 128.879 187.214 130.244 187.144C131.469 187.082 132.663 187.3 133.81 187.704C134.458 187.929 135.097 188.209 135.714 188.535C136.26 188.807 136.791 189.126 137.306 189.452C138.156 189.988 138.975 190.587 139.748 191.177C141.496 192.521 154.753 209.531 161.884 217.379C161.884 217.386 161.884 217.386 161.884 217.386C162.259 217.829 162.618 218.218 162.953 218.568Z" fill="#00BDD3"/>
<g opacity="0.1">
<g opacity="0.1">
<g opacity="0.1">
<g opacity="0.1">
<path opacity="0.1" d="M162.953 218.568L161.76 219.593L159.973 221.124L158.904 222.025L155.79 224.691L155.19 225.196C155.19 225.196 142.463 218.055 135.378 211.955C130.525 207.775 130.088 206.22 129.581 206.609C122.738 211.792 102.482 229.71 91.004 239.035C90.6294 239.073 90.2627 239.112 89.8804 239.136C83.7474 239.586 78.9253 238.91 75.18 237.488C75.1409 232.531 79.4013 220.953 79.7524 219.834C79.7524 219.834 96.6922 203.066 124.135 188.893C124.408 188.753 124.689 188.644 124.962 188.527C125.321 188.372 125.672 188.224 126.038 188.092C127.474 187.548 128.879 187.214 130.244 187.144C131.469 187.082 132.663 187.3 133.81 187.704C134.458 187.929 135.097 188.209 135.714 188.535C136.26 188.807 136.791 189.126 137.306 189.452C138.156 189.988 138.975 190.587 139.748 191.177C141.496 192.521 154.753 209.531 161.884 217.379C161.884 217.386 161.884 217.386 161.884 217.386C162.259 217.829 162.618 218.218 162.953 218.568Z" fill="black"/>
</g>
</g>
</g>
</g>
<path d="M72.5572 146.988C73.6261 151.829 74.7498 158.892 71.418 162.21C75.5534 169.468 80.5238 176.22 86.2276 182.336C93.5388 169.678 86.61 161.853 86.61 161.853C81.1324 160.687 81.2182 158.488 82.0765 154.696L72.5572 146.988Z" fill="#F6B69E"/>
<path d="M68.0332 162.823C68.4389 161.51 69.2738 160.376 70.4052 159.591C71.4976 158.752 82.8585 158.627 85.8157 159.591C87.5401 160.135 89.007 161.285 89.9434 162.831L68.0332 162.823Z" fill="#00BDD3"/>
<path d="M120.444 182.093L123.385 180.757L123.534 185.528C123.534 185.528 122.16 186.748 120.654 187.214C119.211 187.657 117.838 186.336 118.196 184.875C118.485 183.663 119.312 182.637 120.444 182.093Z" fill="#F6B69E"/>
<path d="M127.138 182.109L126.982 183.857C126.943 184.401 126.545 184.852 126.014 184.968L123.502 185.528L123.354 180.757L125.905 180.796C126.584 180.788 127.13 181.324 127.138 182C127.138 182.039 127.138 182.07 127.138 182.109Z" fill="#F6B69E"/>
<path d="M83.1385 195.668C87.5548 197.836 92.97 199.08 98.2836 198.186C104.541 197.137 115.442 190.882 120.186 187.292L118.586 184.922C116.222 185.427 96.9025 195.202 84.4181 186.359C82.0929 184.712 72.9637 177.929 69.7333 178.069C64.4976 178.302 64.9502 183.764 67.1974 186.041C69.8425 188.698 79.5258 193.897 83.1385 195.668Z" fill="#F6B69E"/>
<g opacity="0.2">
<path opacity="0.2" d="M126.982 183.857C126.935 184.394 126.545 184.852 126.015 184.969L123.518 185.528V185.536C123.518 185.536 122.145 186.756 120.646 187.222C120.49 187.269 120.334 187.3 120.186 187.3L120.178 187.307C115.434 190.897 104.541 197.145 98.2836 198.194C92.97 199.08 87.5548 197.844 83.1385 195.668C79.5258 193.897 69.8269 188.698 67.1974 186.041C64.9502 183.764 64.4976 178.309 69.7333 178.069C72.9559 177.929 82.0929 184.712 84.4181 186.359C96.3251 194.79 114.443 186.29 118.15 185.046C118.157 184.992 118.165 184.93 118.181 184.875C118.329 184.269 118.602 183.71 118.992 183.228C119.367 182.754 119.866 182.358 120.428 182.086L123.338 180.765L123.37 180.757L125.898 180.788C126.569 180.78 127.123 181.324 127.123 182C127.123 182.031 127.123 182.062 127.123 182.101L126.982 183.857Z" fill="black"/>
<path opacity="0.2" d="M123.377 180.757L123.354 180.765V180.757H123.377Z" fill="black"/>
</g>
<path d="M99.5009 170.633C106.125 185.171 90.7618 189.32 97.7999 213.16L64.404 213.96C64.6303 201.186 69.1871 203.928 63.179 179.91C62.6718 177.874 61.8213 172.039 63.9983 166.724C64.8488 164.657 66.3547 162.901 68.3288 161.837C70.7945 160.508 81.6559 161.549 86.6107 161.875C91.979 161.129 98.5177 168.814 99.5009 170.633Z" fill="#00BDD3"/>
<path opacity="0.5" d="M99.5009 170.633C106.125 185.171 90.7618 189.32 97.7999 213.16L64.404 213.96C64.6303 201.186 69.1871 203.928 63.179 179.91C62.6718 177.874 61.8213 172.039 63.9983 166.724C64.8488 164.657 66.3547 162.901 68.3288 161.837C70.7945 160.508 81.6559 161.549 86.6107 161.875C91.979 161.129 98.5177 168.814 99.5009 170.633Z" fill="white"/>
<path d="M93.1189 141.789C93.0252 142.426 93.2827 142.947 93.6807 143.001C94.0786 143.056 94.4844 142.613 94.5702 141.999C94.6638 141.385 94.4063 140.841 94.0084 140.787C93.6104 140.74 93.2047 141.183 93.1189 141.789Z" fill="#0E1F3D"/>
<path d="M93.8281 140.803L95.3575 140.593C95.3575 140.585 94.4367 141.626 93.8281 140.803Z" fill="#0E1F3D"/>
<path d="M93.2199 142.629C93.2199 142.629 93.8753 145.411 94.8429 146.833C93.9222 147.47 92.5957 146.926 92.5957 146.926L93.2199 142.629Z" fill="#A02724"/>
<path d="M95.3262 137.515C95.4433 137.469 95.5291 137.36 95.5525 137.236C95.5837 137.033 95.4432 136.855 95.2482 136.823C94.0934 136.621 92.9074 136.995 92.0803 137.819C91.932 137.959 91.9242 138.184 92.0568 138.332C92.1973 138.48 92.4236 138.487 92.5718 138.355C92.5874 138.34 92.603 138.324 92.6186 138.301C93.2897 137.663 94.226 137.383 95.1389 137.547C95.2014 137.554 95.2716 137.547 95.3262 137.515Z" fill="#0E1F3D"/>
<path d="M72.9092 136.762C72.2771 144.338 71.848 147.524 75.0939 151.93C79.9785 158.558 89.4666 157.688 92.3459 150.446C94.952 143.934 95.5528 132.644 88.6083 128.588C83.6614 125.666 77.2787 127.29 74.3371 132.209C73.51 133.592 73.0184 135.154 72.9092 136.762Z" fill="#F6B69E"/>
<path d="M92.5181 149.987C91.9407 149.505 91.5037 148.868 91.2541 148.138C91.2306 148.06 91.2775 147.975 91.3633 147.943C91.4413 147.92 91.5271 147.967 91.5505 148.052C91.7768 148.682 92.1514 149.233 92.6351 149.676L92.5181 149.987Z" fill="#0E1F3D"/>
<path d="M67.4857 126.908C64.5831 130.824 63.2644 131.842 66.8537 142.262C68.2972 146.45 72.4873 151.998 74.5238 152.504C78.1755 153.42 81.7258 150.864 84.4724 148.292C86.8756 146.039 89.1774 143.607 90.6366 140.662C92.0957 137.717 92.6341 134.189 91.4324 131.135C90.1216 127.817 85.4945 124.857 82.0301 124.126C77.9571 123.272 69.8968 123.652 67.4857 126.908Z" fill="#0E1F3D"/>
<path d="M90.238 141.308C90.238 141.308 91.1508 142.869 89.9961 144.035L90.0195 141.953L90.238 141.308Z" fill="#0E1F3D"/>
<path d="M90.2225 141.308C90.2225 141.308 90.558 143.701 88.5449 144.594L89.6295 142.007L90.2225 141.308Z" fill="#0E1F3D"/>
<path d="M76.8261 151.617C76.8261 151.617 74.6101 152.62 74.93 154.787L76.5452 152.495L76.8261 151.617Z" fill="#0E1F3D"/>
<path d="M76.9117 151.664C76.9117 151.664 75.2263 153.405 76.3343 155.308L76.9819 152.581L76.9117 151.664Z" fill="#0E1F3D"/>
<path d="M93.2728 138.183C94.0608 137.375 94.8645 136.551 95.4419 135.58C96.0271 134.609 96.3783 133.459 96.2066 132.348C95.9803 130.902 94.8879 129.713 93.6161 128.983C92.3442 128.26 90.8851 127.934 89.4494 127.615C88.7472 127.46 87.9591 127.312 87.3426 127.685C86.7418 128.043 86.4844 128.796 86.5234 129.488C86.5546 130.18 86.8355 130.832 87.0852 131.477C88.0761 134.003 88.7003 136.598 89.1763 139.255C89.4182 140.6 89.2309 141.485 90.5652 140.973C91.4547 140.623 92.5939 138.882 93.2728 138.183Z" fill="#0E1F3D"/>
<path d="M82.7722 141.921C82.6942 143.677 83.3106 145.387 84.4966 146.684C86.0806 148.402 88.0937 147.275 88.6711 145.146C89.2017 143.234 88.9988 140.041 86.9233 139.124C84.8478 138.199 82.8815 139.784 82.7722 141.921Z" fill="#F6B69E"/>
<path d="M171.271 239.035L177.295 233.183L165.637 218.583L158.35 222.864L171.271 239.035Z" fill="#F6B69E"/>
<path d="M183.444 231.381C182.773 231.147 181.399 231.893 180.362 232.554C180.096 232.717 179.862 232.88 179.659 233.02L179.644 233.028C179.605 233.059 179.573 233.082 179.542 233.106C179.308 233.269 179.137 233.393 179.074 233.44C178.996 233.479 178.965 233.556 178.98 233.634C179.004 233.712 179.074 233.766 179.152 233.774C179.87 233.805 180.588 233.782 181.306 233.704C181.47 233.688 181.626 233.673 181.782 233.649C182.304 233.611 182.804 233.44 183.233 233.152C183.389 233.051 183.537 232.942 183.662 232.818C183.888 232.546 183.966 232.173 183.857 231.831C183.81 231.637 183.654 231.466 183.444 231.381ZM183.49 231.94C183.568 232.165 183.529 232.422 183.366 232.608C183.163 232.857 182.757 233.059 182.18 233.199C181.735 233.308 181.196 233.385 180.564 233.416C180.315 233.424 180.049 233.44 179.776 233.44C179.862 233.37 179.948 233.308 180.042 233.245C180.104 233.199 180.166 233.16 180.229 233.113C181.064 232.531 181.985 232.072 182.96 231.754C183.077 231.722 183.202 231.722 183.327 231.761C183.405 231.785 183.467 231.855 183.49 231.94Z" fill="#00BDD3"/>
<path d="M180.103 228.902C179.737 229.042 179.448 229.337 179.308 229.694C178.816 230.891 179.542 232.733 179.666 233.02C179.666 233.028 179.666 233.028 179.674 233.028C179.674 233.043 179.674 233.051 179.682 233.051C179.713 233.113 179.768 233.16 179.838 233.168C179.877 233.176 179.916 233.168 179.955 233.152C179.979 233.144 180.01 233.121 180.018 233.106C180.025 233.09 180.033 233.09 180.041 233.082C180.15 232.942 180.267 232.764 180.369 232.554C180.946 231.474 181.485 229.671 181.009 229.05C180.868 228.871 180.611 228.7 180.103 228.902ZM179.908 232.577C179.698 231.963 179.323 230.658 179.666 229.85C179.76 229.625 179.924 229.43 180.142 229.314L180.252 229.259C180.587 229.127 180.673 229.244 180.704 229.283C181.04 229.733 180.517 231.575 179.908 232.577Z" fill="#00BDD3"/>
<path opacity="0.2" d="M165.022 217.689L170.515 224.691L163.087 228.809L157.508 221.994L165.022 217.689Z" fill="black"/>
<path d="M64.0996 211.427L63.3271 214.442C63.2101 214.683 63.4988 214.908 63.8811 214.901L98.2757 214.092C98.58 214.077 98.8219 213.929 98.8375 213.743L97.9792 210.58C98.0026 210.378 97.7295 210.207 97.4018 210.215L64.6536 211.171C64.4351 211.148 64.2244 211.249 64.0996 211.427Z" fill="#0E1F3D"/>
<path d="M94.7016 214.449L93.7964 214.543C93.617 214.535 93.4687 214.488 93.4687 214.379L93.4531 210.486C93.4531 210.378 93.6014 210.269 93.7808 210.246L94.686 210.145C94.8654 210.152 95.0137 210.199 95.0137 210.315L95.0293 214.208C95.0215 214.317 94.881 214.426 94.7016 214.449Z" fill="#00BDD3"/>
<path d="M82.3891 214.605L81.484 214.698C81.3045 214.69 81.164 214.643 81.1562 214.535L81.1484 210.642C81.1484 210.533 81.2967 210.424 81.4762 210.401L82.3735 210.3C82.5529 210.308 82.7012 210.354 82.7012 210.471L82.7168 214.364C82.7168 214.488 82.5685 214.581 82.3891 214.605Z" fill="#00BDD3"/>
<path d="M82.3891 214.605L81.484 214.698C81.3045 214.69 81.164 214.643 81.1562 214.535L81.1484 210.642C81.1484 210.533 81.2967 210.424 81.4762 210.401L82.3735 210.3C82.5529 210.308 82.7012 210.354 82.7012 210.471L82.7168 214.364C82.7168 214.488 82.5685 214.581 82.3891 214.605Z" fill="#00BDD3"/>
<path d="M169.632 220.822L168.11 221.677L168.103 221.684L165.489 223.153L163.14 224.466L163.132 224.474L160.721 225.826V225.834L159.801 226.354C159.801 226.354 159.59 226.207 159.223 225.935C159.083 225.834 158.919 225.717 158.732 225.577C158.162 225.15 157.358 224.552 156.43 223.813C156.43 223.813 156.43 223.813 156.43 223.806C151.576 219.99 142.939 212.476 140.372 205.654C138.71 207.628 136.72 210.099 134.442 212.834C124.633 224.621 109.379 241.258 91.0503 243.426C90.6758 243.48 90.3091 243.511 89.9267 243.542C83.8016 244.071 78.9716 243.457 75.2107 242.081C65.6991 238.616 63.0462 230.286 63.7016 223.207V223.184C63.7562 219.874 64.4117 213.968 64.4117 213.968L99.1106 214.007C104.003 208.094 113.811 198.832 123.845 192.988C124.079 192.841 124.321 192.701 124.563 192.577C124.86 192.398 125.164 192.242 125.461 192.079C128.722 190.3 131.984 188.925 135.074 188.179C135.76 188.015 136.439 187.876 137.11 187.775C137.812 187.666 138.507 187.604 139.186 187.572V187.58C143.937 187.363 148.065 189.127 150.866 193.851L169.125 220.084L169.632 220.822Z" fill="#00BDD3"/>
<path d="M150.905 184.915L112.562 186.492L113.686 162.195L152.029 160.617L150.905 184.915Z" fill="#00BDD3"/>
<path d="M150.461 186.834L112.672 188.388C111.603 188.435 110.768 187.596 110.823 186.531L111.939 162.389C111.985 161.316 112.898 160.415 113.967 160.368L151.756 158.814C152.825 158.768 153.66 159.599 153.605 160.671L152.49 184.814C152.443 185.886 151.53 186.788 150.461 186.834Z" fill="#0E1F3D"/>
<path d="M150.905 184.915L112.562 186.492L113.686 162.195L152.029 160.617L150.905 184.915Z" fill="#00BDD3"/>
<path opacity="0.9" d="M150.905 184.915L112.562 186.492L113.686 162.195L152.029 160.617L150.905 184.915Z" fill="white"/>
<path opacity="0.1" d="M127.295 159.824L120.959 188.03L123.479 187.929L129.729 159.723L127.295 159.824Z" fill="white"/>
<path opacity="0.1" d="M131.18 159.669L124.844 187.875L129.845 187.665L136.095 159.467L131.18 159.669Z" fill="white"/>
<path d="M138.46 187.137L151.225 186.779C151.444 188.256 150.812 188.807 150 188.831L145.919 188.932L143.196 188.994L138.959 189.11L112.672 189.872L112.461 188.03L138.46 187.137Z" fill="#00BDD3"/>
<path d="M138.46 187.137L151.226 186.779C151.444 188.256 150.812 188.807 150.001 188.831L145.92 188.932L143.197 188.994L138.96 189.11L106.422 190.105C106.048 190.113 105.704 189.911 105.541 189.569C105.252 188.963 105.681 188.248 106.36 188.225L138.46 187.137Z" fill="#00BDD3"/>
<path opacity="0.2" d="M138.46 187.137L151.226 186.779C151.444 188.256 150.812 188.807 150.001 188.831L145.92 188.932L143.197 188.994L138.96 189.11L106.422 190.105C106.048 190.113 105.704 189.911 105.541 189.569C105.252 188.963 105.681 188.248 106.36 188.225L138.46 187.137Z" fill="black"/>
<path opacity="0.2" d="M151.226 186.779L151.304 187.292C151.421 188.085 150.813 188.807 150.001 188.831L145.92 188.932L138.344 189.204L138.469 187.137L151.226 186.779Z" fill="black"/>
<path opacity="0.2" d="M85.1046 171.348C85.1046 171.348 83.3021 175.007 88.5066 184.674L90.6835 188.613C91.4014 189.911 96.1767 187.261 97.5968 184.829C97.5968 184.829 88.4754 179.374 85.1046 171.348Z" fill="black"/>
<path d="M129.243 182.613L132.872 181.549L132.286 187.136C132.286 187.136 127.222 190.508 125.467 187.283L126.169 185.481C126.715 184.113 127.839 183.064 129.243 182.613Z" fill="#F6B69E"/>
<path d="M137.037 183.749L136.584 185.761C136.452 186.383 135.921 186.841 135.281 186.896L132.262 187.129L132.847 181.542L135.812 182.008C136.6 182.109 137.162 182.832 137.053 183.617C137.053 183.663 137.045 183.702 137.037 183.749Z" fill="#F6B69E"/>
<path d="M99.0312 192.063C101.559 195.482 105.117 198.334 109.307 199.15C114.239 200.113 123.727 193.166 128.175 188.667C127.948 186.771 128.081 185.746 126.177 185.482C126.177 185.482 121.285 189.056 112.046 191.201C109.066 191.892 107.076 188.854 104.47 184.433C103.174 182.226 98.9765 173.189 97.3926 171.176C94.8567 167.944 87.6235 170.259 90.4949 178.038C91.7044 181.309 96.9634 189.266 99.0312 192.063Z" fill="#F6B69E"/>
<path d="M96.3319 165.885C101.466 170.578 103.963 178.877 103.963 178.877L91.978 186.15C91.978 186.15 83.2155 173.904 84.776 169.638C86.0089 166.327 88.2951 164.152 91.2991 163.965C93.164 163.856 94.9586 164.626 96.3319 165.885Z" fill="#00BDD3"/>
<path d="M68.8523 215.079L67.9472 215.103C67.7677 215.079 67.6273 215.017 67.6351 214.9L67.9628 211.023C67.9784 210.907 68.1267 210.813 68.3061 210.806L69.2112 210.782C69.3907 210.806 69.5311 210.875 69.5233 210.984L69.1956 214.869C69.1878 214.978 69.0318 215.095 68.8523 215.079Z" fill="#00BDD3"/>
<path d="M158.327 228.001L170 222.189L169.001 218.055L155.689 224.108L158.327 228.001Z" fill="#00BDD3"/>
<path opacity="0.5" d="M158.327 228.001L170 222.189L169.001 218.055L155.689 224.108L158.327 228.001Z" fill="white"/>
<path d="M176.826 232.546L168.774 234.979C168.454 235.064 168.251 235.367 168.29 235.693L169.257 242.966C169.382 243.681 170.061 244.171 170.779 244.047C170.826 244.039 170.873 244.031 170.919 244.015C184.371 241.785 188.811 239.33 190.255 238.84C194.382 237.45 192.736 234.411 191.269 234.505C184.684 234.909 182.631 234.155 180.018 232.974C178.621 232.484 177.31 232.407 176.826 232.546Z" fill="#0E1F3D"/>
<path d="M68.5466 136.668C66.1277 137.049 63.7323 135.2 62.9754 132.884C62.2186 130.569 62.8428 127.981 64.0834 125.875C64.9963 124.321 70.9811 120.638 73.2049 124.788C77.6212 133.047 68.5466 136.668 68.5466 136.668Z" fill="#0E1F3D"/>
<path d="M150.562 168.946L126.959 169.949L127.068 167.618L150.672 166.615L150.562 168.946Z" fill="#00BDD3"/>
<g opacity="0.7">
<path opacity="0.7" d="M150.562 168.946L126.959 169.949L127.068 167.618L150.672 166.615L150.562 168.946Z" fill="white"/>
</g>
<path d="M150.422 172.187L126.818 173.181L126.92 170.85L150.523 169.855L150.422 172.187Z" fill="#00BDD3"/>
<g opacity="0.7">
<path opacity="0.7" d="M150.422 172.187L126.818 173.181L126.92 170.85L150.523 169.855L150.422 172.187Z" fill="white"/>
</g>
<path d="M150.273 175.42L126.67 176.422L126.779 174.091L150.383 173.089L150.273 175.42Z" fill="#00BDD3"/>
<g opacity="0.7">
<path opacity="0.7" d="M150.273 175.42L126.67 176.422L126.779 174.091L150.383 173.089L150.273 175.42Z" fill="white"/>
</g>
<path d="M150.127 178.66L126.523 179.655L126.633 177.324L150.236 176.329L150.127 178.66Z" fill="#00BDD3"/>
<g opacity="0.7">
<path opacity="0.7" d="M150.127 178.66L126.523 179.655L126.633 177.324L150.236 176.329L150.127 178.66Z" fill="white"/>
</g>
<path d="M149.984 181.894L126.381 182.896L126.482 180.565L150.086 179.562L149.984 181.894Z" fill="#00BDD3"/>
<g opacity="0.7">
<path opacity="0.7" d="M149.984 181.894L126.381 182.896L126.482 180.565L150.086 179.562L149.984 181.894Z" fill="white"/>
</g>
<path d="M117.433 171.251L115.539 171.332L115.572 172.108L117.467 172.027L117.433 171.251Z" fill="#00BDD3"/>
<g opacity="0.5">
<path opacity="0.5" d="M117.433 171.251L115.539 171.332L115.572 172.108L117.467 172.027L117.433 171.251Z" fill="white"/>
</g>
<path d="M117.347 173.496L115.453 173.577L115.487 174.353L117.381 174.272L117.347 173.496Z" fill="#00BDD3"/>
<g opacity="0.5">
<path opacity="0.5" d="M117.347 173.496L115.453 173.577L115.487 174.353L117.381 174.272L117.347 173.496Z" fill="white"/>
</g>
<path d="M117.252 175.734L115.357 175.815L115.391 176.592L117.285 176.51L117.252 175.734Z" fill="#00BDD3"/>
<g opacity="0.5">
<path opacity="0.5" d="M117.252 175.734L115.357 175.815L115.391 176.592L117.285 176.51L117.252 175.734Z" fill="white"/>
</g>
<path d="M117.166 177.98L115.271 178.062L115.305 178.838L117.199 178.756L117.166 177.98Z" fill="#00BDD3"/>
<g opacity="0.5">
<path opacity="0.5" d="M117.166 177.98L115.271 178.062L115.305 178.838L117.199 178.756L117.166 177.98Z" fill="white"/>
</g>
<path d="M117.074 180.217L115.18 180.299L115.213 181.075L117.107 180.994L117.074 180.217Z" fill="#00BDD3"/>
<g opacity="0.5">
<path opacity="0.5" d="M115.209 181.084L115.279 180.299L117.167 180.222L117.097 180.999L115.209 181.084Z" fill="white"/>
</g>
<path d="M116.982 182.457L115.088 182.537L115.121 183.313L117.015 183.234L116.982 182.457Z" fill="#00BDD3"/>
<g opacity="0.5">
<path opacity="0.5" d="M116.982 182.457L115.088 182.537L115.121 183.313L117.015 183.234L116.982 182.457Z" fill="white"/>
</g>
<path d="M119.397 169.11L115.48 170.563L115.519 169.538L117.689 169.188L115.543 169.04L115.582 168.015L119.397 169.11Z" fill="#00BDD3"/>
<path d="M143.314 165.403L126.959 166.095L127.037 164.479L143.392 163.787L143.314 165.403Z" fill="#00BDD3"/>
<g opacity="0.7">
<path opacity="0.7" d="M143.314 165.403L126.959 166.095L127.037 164.479L143.392 163.787L143.314 165.403Z" fill="white"/>
</g>
<path d="M121.247 166.243L118.852 166.344L119.819 165.73L120.084 165.979L120.373 165.723L121.247 166.243Z" fill="#00BDD3"/>
<path d="M119.725 165.66L118.758 166.273L118.828 164.852L119.725 165.66Z" fill="#00BDD3"/>
<path d="M121.403 164.805L121.325 166.157L120.443 165.644L121.403 164.805Z" fill="#00BDD3"/>
<path d="M120.118 165.399L120.064 165.455L120.07 165.46L120.124 165.404L120.118 165.399Z" fill="white"/>
<path d="M120.072 165.421L120.066 165.427L120.12 165.483L120.125 165.478L120.072 165.421Z" fill="white"/>
<path d="M121.403 164.673L120.373 165.605L120.084 165.854L119.819 165.613L118.922 164.805L118.852 164.735L121.403 164.673Z" fill="#00BDD3"/>
<path d="M117.441 164.921L115.547 165.002L115.557 165.235L117.451 165.154L117.441 164.921Z" fill="#00BDD3"/>
<path d="M117.443 165.511L115.549 165.592L115.559 165.825L117.453 165.744L117.443 165.511Z" fill="#00BDD3"/>
<path d="M117.441 166.111L115.547 166.191L115.557 166.424L117.451 166.344L117.441 166.111Z" fill="#00BDD3"/>
<path d="M227.366 48.0795H215.998C214.968 48.0795 214.133 47.248 214.133 46.2223C214.133 45.1967 214.968 44.3652 215.998 44.3652H227.366C228.396 44.3652 229.231 45.1967 229.231 46.2223C229.231 47.248 228.396 48.0795 227.366 48.0795Z" fill="#00BDD3"/>
<g opacity="0.7">
<path opacity="0.7" d="M227.366 48.0795H215.998C214.968 48.0795 214.133 47.248 214.133 46.2223C214.133 45.1967 214.968 44.3652 215.998 44.3652H227.366C228.396 44.3652 229.231 45.1967 229.231 46.2223C229.231 47.248 228.396 48.0795 227.366 48.0795Z" fill="white"/>
</g>
<path d="M269.073 86.2381L225.486 166.117C224.924 167.143 223.629 167.524 222.599 166.964L148.434 126.83C147.404 126.271 147.022 124.981 147.583 123.955L204.27 20.0581C204.832 19.0325 206.128 18.6517 207.158 19.2112L257.134 46.252L269.073 86.2381Z" fill="#00BDD3"/>
<g opacity="0.2">
<path opacity="0.2" d="M269.073 86.2381L225.486 166.117C224.924 167.143 223.629 167.524 222.599 166.964L148.434 126.83C147.404 126.271 147.022 124.981 147.583 123.955L204.27 20.0581C204.832 19.0325 206.128 18.6517 207.158 19.2112L257.134 46.252L269.073 86.2381Z" fill="white"/>
</g>
<path d="M244.62 104.167L189.229 74.4082L187.376 77.8275L242.767 107.586L244.62 104.167Z" fill="#00BDD3"/>
<path d="M237.051 118.137L181.66 88.3789L179.808 91.7982L235.199 121.557L237.051 118.137Z" fill="#00BDD3"/>
<path d="M229.483 132.109L174.092 102.351L172.239 105.77L227.63 135.528L229.483 132.109Z" fill="#00BDD3"/>
<path d="M257.196 46.2207L244.056 70.3165C243.494 71.3422 243.877 72.6321 244.907 73.1916L269.025 86.2457L257.196 46.2207Z" fill="#00BDD3"/>
<path opacity="0.7" d="M257.196 46.2207L244.056 70.3165C243.494 71.3422 243.877 72.6321 244.907 73.1916L269.025 86.2457L257.196 46.2207Z" fill="white"/>
<path d="M280.432 83.5497L236.846 163.429C236.284 164.454 234.989 164.835 233.959 164.276L159.793 124.142C158.763 123.582 158.381 122.293 158.943 121.267L215.63 17.3697C216.192 16.344 217.487 15.9632 218.517 16.5227L268.494 43.5635L280.432 83.5497Z" fill="#00BDD3"/>
<g opacity="0.5">
<path opacity="0.5" d="M280.432 83.5497L236.846 163.429C236.284 164.454 234.989 164.835 233.959 164.276L159.793 124.142C158.763 123.582 158.381 122.293 158.943 121.267L215.63 17.3697C216.192 16.344 217.487 15.9632 218.517 16.5227L268.494 43.5635L280.432 83.5497Z" fill="white"/>
</g>
<path d="M254.504 100.684L202.07 72.5162C201.25 72.081 200.236 72.3841 199.791 73.1922L199.534 73.6662C199.097 74.4821 199.401 75.4922 200.212 75.9351L252.647 104.103C253.466 104.538 254.481 104.235 254.925 103.427L255.183 102.953C255.628 102.137 255.323 101.119 254.504 100.684Z" fill="#00BDD3"/>
<path d="M246.936 114.654L194.501 86.4869C193.682 86.0518 192.668 86.3548 192.223 87.1629L191.965 87.6369C191.528 88.4528 191.833 89.4629 192.644 89.9058L245.079 118.073C245.898 118.508 246.912 118.205 247.357 117.397L247.615 116.923C248.059 116.107 247.755 115.097 246.936 114.654Z" fill="#00BDD3"/>
<path d="M239.365 128.626L186.931 100.459C186.112 100.023 185.097 100.326 184.652 101.135L184.395 101.609C183.958 102.424 184.262 103.435 185.074 103.878L237.508 132.045C238.328 132.48 239.342 132.177 239.787 131.369L240.044 130.895C240.489 130.079 240.185 129.069 239.365 128.626Z" fill="#00BDD3"/>
<path d="M268.565 43.5322L255.417 67.628C254.856 68.6537 255.238 69.9436 256.268 70.5031L280.386 83.5572L268.565 43.5322Z" fill="#00BDD3"/>
<path opacity="0.7" d="M268.565 43.5322L255.417 67.628C254.856 68.6537 255.238 69.9436 256.268 70.5031L280.386 83.5572L268.565 43.5322Z" fill="white"/>
<path d="M265.553 6.91113L269.22 23.1278C255.331 26.9275 242.87 40.6111 233.905 53.5487C230.37 58.6538 227.374 64.5826 225.135 70.8533C225.135 70.8533 253.139 45.623 268.581 44.1466L267.847 70.9543C267.847 70.9543 283.858 39.8962 314.96 28.5282C314.952 28.5204 288.907 9.84055 265.553 6.91113Z" fill="#F4E041"/>
<path d="M76.616 184.083L83.6931 264.638H72.2854L64.6699 177.952H69.8978C73.4012 177.952 76.3117 180.61 76.616 184.083Z" fill="#00BDD3"/>
<path opacity="0.2" d="M76.6862 184.806L83.7009 264.638H72.2932L64.6777 177.952H69.1721C73.0813 177.952 76.3429 180.928 76.6862 184.806Z" fill="black"/>
<path d="M69.2037 183.197L76.3588 264.638H8.44346L1.37415 184.2C1.07764 180.843 3.73839 177.952 7.12479 177.952H63.4452C66.4493 177.952 68.9462 180.229 69.2037 183.197Z" fill="#00BDD3"/>
<path opacity="0.2" d="M69.2812 184.083L76.3584 264.638H8.44304L1.46737 185.256C1.12405 181.332 4.22955 177.952 8.18555 177.952H62.5553C66.0587 177.952 68.9769 180.61 69.2812 184.083Z" fill="white"/>
<path d="M188.726 264.638H8.75537L6.79688 242.298H179.558C183.545 242.298 187.056 245.515 187.4 249.485L188.726 264.638Z" fill="#00BDD3"/>
<path opacity="0.2" d="M188.726 264.638H8.75537L6.79688 242.298H179.558C183.545 242.298 187.056 245.515 187.4 249.485L188.726 264.638Z" fill="white"/>
<path d="M196.982 273.194H6.64091C4.17524 273.194 2.16992 271.205 2.16992 268.741C2.16992 266.286 4.16743 264.289 6.64091 264.289H196.982C199.447 264.289 201.453 266.278 201.453 268.741C201.453 271.197 199.447 273.194 196.982 273.194Z" fill="#00BDD3"/>
<path opacity="0.2" d="M196.982 273.194H86.4866C84.0209 273.194 82.0156 271.205 82.0156 268.741C82.0156 266.286 84.0131 264.289 86.4866 264.289H196.982C199.447 264.289 201.453 266.278 201.453 268.741C201.453 271.197 199.447 273.194 196.982 273.194Z" fill="black"/>
<path d="M9.13867 273.193L11.3937 280.839H15.9037L18.385 273.193H9.13867Z" fill="#263238"/>
<path opacity="0.5" d="M9.13867 273.193L11.3937 280.839H15.9037L18.385 273.193H9.13867Z" fill="white"/>
<path d="M73.7695 273.193L76.0245 280.839H80.5345L83.0158 273.193H73.7695Z" fill="#263238"/>
<path opacity="0.5" d="M73.7695 273.193L76.0245 280.839H80.5345L83.0158 273.193H73.7695Z" fill="white"/>
<path d="M123.238 273.193L125.493 280.839H130.003L132.485 273.193H123.238Z" fill="#263238"/>
<path opacity="0.5" d="M123.238 273.193L125.493 280.839H130.003L132.485 273.193H123.238Z" fill="white"/>
<path d="M187.869 273.193L190.124 280.839H194.634L197.115 273.193H187.869Z" fill="#263238"/>
<path opacity="0.5" d="M187.869 273.193L190.124 280.839H194.634L197.115 273.193H187.869Z" fill="white"/>
<path d="M261.432 150.254C261.432 167.469 247.468 181.425 230.242 181.425C213.017 181.425 199.053 167.469 199.053 150.254C199.053 133.038 213.017 119.082 230.242 119.082C247.468 119.082 261.432 133.038 261.432 150.254Z" fill="#EA5924"/>
<path d="M226.211 156.734L221.1 151.626C220.531 151.057 219.625 151.057 219.056 151.626C218.487 152.195 218.487 153.1 219.056 153.669L225.174 159.784C225.744 160.353 226.664 160.353 227.233 159.784L242.711 144.329C243.281 143.76 243.281 142.855 242.711 142.286C242.142 141.717 241.236 141.717 240.667 142.286L226.211 156.734Z" fill="white"/>
</svg>
